<svg xmlns="http://www.w3.org/2000/svg" viewBox="0 0 800 320" width="800" height="320" aria-hidden="true">
  <title>Hachure ridge — terrain strokes showing contour and slope</title>

  <!-- Paper ground -->
  <rect width="800" height="320" fill="none"/>

  <!-- 
    A ridge running roughly NNE–SSW, with hachures pointing downslope.
    Stroke weight and length encode steepness: steeper = heavier/shorter.
    Three main spurs branch from the main spine.
    Drawn in the manner of Dufour's 1:100,000 Swiss map, ca. 1845.
  -->

  <g id="hachures" stroke="#2C2416" stroke-linecap="round" fill="none">

    <!-- === MAIN SUMMIT SPINE === -->
    <!-- Summit cluster — very short, heavy strokes radiating from peak -->
    <line x1="400" y1="42" x2="396" y2="52" stroke-width="1.8"/>
    <line x1="400" y1="42" x2="404" y2="52" stroke-width="1.8"/>
    <line x1="400" y1="42" x2="392" y2="50" stroke-width="1.6"/>
    <line x1="400" y1="42" x2="408" y2="50" stroke-width="1.6"/>
    <line x1="400" y1="42" x2="388" y2="48" stroke-width="1.4"/>
    <line x1="400" y1="42" x2="412" y2="48" stroke-width="1.4"/>

    <!-- === LEFT SPUR (NW slope) — steep, dense strokes === -->
    <!-- Inner ring: steep approach strokes -->
    <line x1="382" y1="56" x2="368" y2="70" stroke-width="1.7" opacity="0.9"/>
    <line x1="376" y1="60" x2="360" y2="76" stroke-width="1.6" opacity="0.9"/>
    <line x1="370" y1="65" x2="352" y2="82" stroke-width="1.5" opacity="0.85"/>
    <line x1="365" y1="70" x2="344" y2="88" stroke-width="1.4" opacity="0.85"/>
    <line x1="360" y1="76" x2="338" y2="96" stroke-width="1.3" opacity="0.8"/>
    <line x1="356" y1="83" x2="332" y2="104" stroke-width="1.2" opacity="0.8"/>
    <line x1="352" y1="90" x2="326" y2="113" stroke-width="1.1" opacity="0.75"/>
    <line x1="348" y1="98" x2="320" y2="123" stroke-width="1.0" opacity="0.75"/>
    <line x1="344" y1="107" x2="316" y2="132" stroke-width="1.0" opacity="0.7"/>
    <line x1="340" y1="116" x2="312" y2="142" stroke-width="0.9" opacity="0.7"/>
    <line x1="336" y1="126" x2="308" y2="153" stroke-width="0.9" opacity="0.65"/>
    <line x1="332" y1="136" x2="305" y2="163" stroke-width="0.85" opacity="0.65"/>
    <line x1="328" y1="147" x2="302" y2="174" stroke-width="0.8" opacity="0.6"/>
    <line x1="324" y1="158" x2="300" y2="185" stroke-width="0.8" opacity="0.6"/>
    <line x1="320" y1="170" x2="298" y2="197" stroke-width="0.75" opacity="0.55"/>
    <line x1="317" y1="182" x2="296" y2="210" stroke-width="0.75" opacity="0.55"/>
    <line x1="314" y1="194" x2="294" y2="223" stroke-width="0.7" opacity="0.5"/>
    <line x1="311" y1="207" x2="293" y2="236" stroke-width="0.7" opacity="0.5"/>
    <line x1="309" y1="220" x2="292" y2="250" stroke-width="0.65" opacity="0.45"/>
    <line x1="307" y1="234" x2="291" y2="264" stroke-width="0.65" opacity="0.45"/>
    <line x1="305" y1="248" x2="291" y2="278" stroke-width="0.6" opacity="0.4"/>

    <!-- Secondary NW strokes, slightly offset -->
    <line x1="372" y1="54" x2="355" y2="68" stroke-width="1.5" opacity="0.8"/>
    <line x1="364" y1="58" x2="345" y2="74" stroke-width="1.4" opacity="0.78"/>
    <line x1="356" y1="63" x2="336" y2="81" stroke-width="1.3" opacity="0.75"/>
    <line x1="348" y1="69" x2="327" y2="89" stroke-width="1.2" opacity="0.72"/>
    <line x1="340" y1="76" x2="318" y2="98" stroke-width="1.1" opacity="0.7"/>
    <line x1="333" y1="84" x2="309" y2="108" stroke-width="1.0" opacity="0.68"/>
    <line x1="326" y1="93" x2="301" y2="119" stroke-width="0.95" opacity="0.65"/>
    <line x1="320" y1="103" x2="294" y2="130" stroke-width="0.9" opacity="0.62"/>
    <line x1="314" y1="114" x2="288" y2="142" stroke-width="0.85" opacity="0.6"/>
    <line x1="308" y1="126" x2="282" y2="155" stroke-width="0.8" opacity="0.57"/>
    <line x1="303" y1="138" x2="277" y2="168" stroke-width="0.78" opacity="0.55"/>
    <line x1="298" y1="151" x2="273" y2="182" stroke-width="0.75" opacity="0.52"/>
    <line x1="294" y1="165" x2="269" y2="197" stroke-width="0.72" opacity="0.5"/>
    <line x1="290" y1="179" x2="266" y2="212" stroke-width="0.7" opacity="0.48"/>
    <line x1="287" y1="194" x2="263" y2="228" stroke-width="0.68" opacity="0.45"/>
    <line x1="284" y1="209" x2="261" y2="244" stroke-width="0.65" opacity="0.42"/>
    <line x1="281" y1="225" x2="259" y2="260" stroke-width="0.62" opacity="0.4"/>
    <line x1="279" y1="241" x2="257" y2="276" stroke-width="0.6" opacity="0.38"/>
    <line x1="277" y1="258" x2="256" y2="292" stroke-width="0.58" opacity="0.35"/>

    <!-- Tertiary NW fill strokes -->
    <line x1="362" y1="52" x2="342" y2="66" stroke-width="1.3" opacity="0.7"/>
    <line x1="352" y1="57" x2="330" y2="73" stroke-width="1.2" opacity="0.67"/>
    <line x1="342" y1="63" x2="320" y2="81" stroke-width="1.1" opacity="0.64"/>
    <line x1="333" y1="70" x2="310" y2="90" stroke-width="1.0" opacity="0.61"/>
    <line x1="324" y1="79" x2="300" y2="101" stroke-width="0.9" opacity="0.58"/>
    <line x1="316" y1="89" x2="292" y2="113" stroke-width="0.85" opacity="0.55"/>
    <line x1="309" y1="100" x2="284" y2="126" stroke-width="0.8" opacity="0.52"/>
    <line x1="302" y1="112" x2="277" y2="140" stroke-width="0.75" opacity="0.5"/>
    <line x1="296" y1="125" x2="270" y2="154" stroke-width="0.72" opacity="0.47"/>
    <line x1="291" y1="139" x2="264" y2="169" stroke-width="0.68" opacity="0.44"/>
    <line x1="286" y1="154" x2="259" y2="185" stroke-width="0.65" opacity="0.41"/>
    <line x1="282" y1="170" x2="255" y2="202" stroke-width="0.62" opacity="0.39"/>
    <line x1="278" y1="187" x2="252" y2="219" stroke-width="0.6" opacity="0.37"/>
    <line x1="275" y1="204" x2="250" y2="237" stroke-width="0.58" opacity="0.35"/>

    <!-- === RIGHT SPUR (NE slope) — steep, dense strokes === -->
    <line x1="418" y1="56" x2="432" y2="70" stroke-width="1.7" opacity="0.9"/>
    <line x1="424" y1="60" x2="440" y2="76" stroke-width="1.6" opacity="0.9"/>
    <line x1="430" y1="65" x2="448" y2="82" stroke-width="1.5" opacity="0.85"/>
    <line x1="435" y1="70" x2="456" y2="88" stroke-width="1.4" opacity="0.85"/>
    <line x1="440" y1="76" x2="462" y2="96" stroke-width="1.3" opacity="0.8"/>
    <line x1="444" y1="83" x2="468" y2="104" stroke-width="1.2" opacity="0.8"/>
    <line x1="448" y1="90" x2="474" y2="113" stroke-width="1.1" opacity="0.75"/>
    <line x1="452" y1="98" x2="480" y2="123" stroke-width="1.0" opacity="0.75"/>
    <line x1="456" y1="107" x2="484" y2="132" stroke-width="1.0" opacity="0.7"/>
    <line x1="460" y1="116" x2="488" y2="142" stroke-width="0.9" opacity="0.7"/>
    <line x1="464" y1="126" x2="492" y2="153" stroke-width="0.9" opacity="0.65"/>
    <line x1="468" y1="136" x2="495" y2="163" stroke-width="0.85" opacity="0.65"/>
    <line x1="472" y1="147" x2="498" y2="174" stroke-width="0.8" opacity="0.6"/>
    <line x1="476" y1="158" x2="500" y2="185" stroke-width="0.8" opacity="0.6"/>
    <line x1="480" y1="170" x2="502" y2="197" stroke-width="0.75" opacity="0.55"/>
    <line x1="483" y1="182" x2="504" y2="210" stroke-width="0.75" opacity="0.55"/>
    <line x1="486" y1="194" x2="506" y2="223" stroke-width="0.7" opacity="0.5"/>
    <line x1="489" y1="207" x2="507" y2="236" stroke-width="0.7" opacity="0.5"/>
    <line x1="491" y1="220" x2="508" y2="250" stroke-width="0.65" opacity="0.45"/>
    <line x1="493" y1="234" x2="509" y2="264" stroke-width="0.65" opacity="0.45"/>
    <line x1="495" y1="248" x2="509" y2="278" stroke-width="0.6" opacity="0.4"/>

    <!-- Secondary NE strokes -->
    <line x1="428" y1="54" x2="445" y2="68" stroke-width="1.5" opacity="0.8"/>
    <line x1="436" y1="58" x2="455" y2="74" stroke-width="1.4" opacity="0.78"/>
    <line x1="444" y1="63" x2="464" y2="81" stroke-width="1.3" opacity="0.75"/>
    <line x1="452" y1="69" x2="473" y2="89" stroke-width="1.2" opacity="0.72"/>
    <line x1="460" y1="76" x2="482" y2="98" stroke-width="1.1" opacity="0.7"/>
    <line x1="467" y1="84" x2="491" y2="108" stroke-width="1.0" opacity="0.68"/>
    <line x1="474" y1="93" x2="499" y2="119" stroke-width="0.95" opacity="0.65"/>
    <line x1="480" y1="103" x2="506" y2="130" stroke-width="0.9" opacity="0.62"/>
    <line x1="486" y1="114" x2="512" y2="142" stroke-width="0.85" opacity="0.6"/>
    <line x1="492" y1="126" x2="518" y2="155" stroke-width="0.8" opacity="0.57"/>
    <line x1="497" y1="138" x2="523" y2="168" stroke-width="0.78" opacity="0.55"/>
    <line x1="502" y1="151" x2="527" y2="182" stroke-width="0.75" opacity="0.52"/>
    <line x1="506" y1="165" x2="531" y2="197" stroke-width="0.72" opacity="0.5"/>
    <line x1="510" y1="179" x2="534" y2="212" stroke-width="0.7" opacity="0.48"/>
    <line x1="513" y1="194" x2="537" y2="228" stroke-width="0.68" opacity="0.45"/>
    <line x1="516" y1="209" x2="539" y2="244" stroke-width="0.65" opacity="0.42"/>
    <line x1="519" y1="225" x2="541" y2="260" stroke-width="0.62" opacity="0.4"/>
    <line x1="521" y1="241" x2="543" y2="276" stroke-width="0.6" opacity="0.38"/>
    <line x1="523" y1="258" x2="544" y2="292" stroke-width="0.58" opacity="0.35"/>

    <!-- Tertiary NE fill -->
    <line x1="438" y1="52" x2="458" y2="66" stroke-width="1.3" opacity="0.7"/>
    <line x1="448" y1="57" x2="470" y2="73" stroke-width="1.2" opacity="0.67"/>
    <line x1="458" y1="63" x2="480" y2="81" stroke-width="1.1" opacity="0.64"/>
    <line x1="467" y1="70" x2="490" y2="90" stroke-width="1.0" opacity="0.61"/>
    <line x1="476" y1="79" x2="500" y2="101" stroke-width="0.9" opacity="0.58"/>
    <line x1="484" y1="89" x2="508" y2="113" stroke-width="0.85" opacity="0.55"/>
    <line x1="491" y1="100" x2="516" y2="126" stroke-width="0.8" opacity="0.52"/>
    <line x1="498" y1="112" x2="523" y2="140" stroke-width="0.75" opacity="0.5"/>
    <line x1="504" y1="125" x2="530" y2="154" stroke-width="0.72" opacity="0.47"/>
    <line x1="509" y1="139" x2="536" y2="169" stroke-width="0.68" opacity="0.44"/>
    <line x1="514" y1="154" x2="541" y2="185" stroke-width="0.65" opacity="0.41"/>
    <line x1="518" y1="170" x2="545" y2="202" stroke-width="0.62" opacity="0.39"/>
    <line x1="522" y1="187" x2="548" y2="219" stroke-width="0.6" opacity="0.37"/>
    <line x1="525" y1="204" x2="550" y2="237" stroke-width="0.58" opacity="0.35"/>

    <!-- === SOUTHERN VALLEY / base fade === -->
    <!-- Central lower strokes, spine continuing down -->
    <line x1="400" y1="52" x2="399" y2="64" stroke-width="1.6"/>
    <line x1="399" y1="64" x2="398" y2="78" stroke-width="1.5"/>
    <line x1="398" y1="78" x2="397" y2="94" stroke-width="1.4"/>
    <line x1="397" y1="94" x2="396" y2="112" stroke-width="1.3"/>
    <line x1="396" y1="112" x2="395" y2="132" stroke-width="1.2"/>
    <line x1="395" y1="132" x2="395" y2="154" stroke-width="1.1"/>
    <line x1="395" y1="154" x2="394" y2="178" stroke-width="1.0"/>
    <line x1="394" y1="178" x2="394" y2="204" stroke-width="0.9"/>
    <line x1="394" y1="204" x2="393" y2="232" stroke-width="0.85"/>
    <line x1="393" y1="232" x2="393" y2="262" stroke-width="0.8"/>
    <line x1="393" y1="262" x2="392" y2="294" stroke-width="0.7"/>

    <!-- Close flanking strokes along spine, tighter -->
    <line x1="392" y1="56" x2="388" y2="68" stroke-width="1.5"/>
    <line x1="388" y1="68" x2="384" y2="82" stroke-width="1.4"/>
    <line x1="384" y1="82" x2="381" y2="98" stroke-width="1.3"/>
    <line x1="381" y1="98" x2="378" y2="116" stroke-width="1.2"/>
    <line x1="378" y1="116" x2="376" y2="136" stroke-width="1.1"/>
    <line x1="376" y1="136" x2="374" y2="158" stroke-width="1.0"/>
    <line x1="374" y1="158" x2="372" y2="182" stroke-width="0.9"/>
    <line x1="372" y1="182" x2="371" y2="208" stroke-width="0.85"/>
    <line x1="371" y1="208" x2="370" y2="236" stroke-width="0.8"/>
    <line x1="370" y1="236" x2="369" y2="266" stroke-width="0.75"/>

    <line x1="408" y1="56" x2="412" y2="68" stroke-width="1.5"/>
    <line x1="412" y1="68" x2="416" y2="82" stroke-width="1.4"/>
    <line x1="416" y1="82" x2="419" y2="98" stroke-width="1.3"/>
    <line x1="419" y1="98" x2="422" y2="116" stroke-width="1.2"/>
    <line x1="422" y1="116" x2="424" y2="136" stroke-width="1.1"/>
    <line x1="424" y1="136" x2="426" y2="158" stroke-width="1.0"/>
    <line x1="426" y1="158" x2="428" y2="182" stroke-width="0.9"/>
    <line x1="428" y1="182" x2="429" y2="208" stroke-width="0.85"/>
    <line x1="429" y1="208" x2="430" y2="236" stroke-width="0.8"/>
    <line x1="430" y1="236" x2="431" y2="266" stroke-width="0.75"/>

  </g>

  <!-- Draw-in animation overlay: strokes fade in left→right in staggered waves -->
  <style>
    #hachures line {
      stroke-dasharray: 40;
      stroke-dashoffset: 40;
      animation: draw-stroke 0.6s ease-out forwards;
    }
    /* Stagger by index using nth-child — grouped in 3 waves */
    #hachures line:nth-child(-n+20)  { animation-delay: calc(0.05s + (var(--i, 0)) * 0.008s); }
    #hachures line:nth-child(n+21):nth-child(-n+80)  { animation-delay: calc(0.15s + (var(--i, 0)) * 0.005s); }
    #hachures line:nth-child(n+81)   { animation-delay: calc(0.3s + (var(--i, 0)) * 0.004s); }

    @keyframes draw-stroke {
      to { stroke-dashoffset: 0; }
    }

    @media (prefers-reduced-motion: reduce) {
      #hachures line {
        animation: none;
        stroke-dashoffset: 0;
      }
    }
  </style>
</svg>
